<svg width="249" height="63" viewBox="0 0 249 63" fill="none" xmlns="http://www.w3.org/2000/svg">
<path d="M9 54L54 9" stroke="#FFBD3A" stroke-width="18" stroke-linecap="round"/>
<path d="M37 50L82 5" stroke="#FFBD3A" stroke-width="8" stroke-linecap="round"/>
<path d="M19.416 53H25.08V39.08H42.888V53H48.552V19.4H42.888V33.992H25.08V19.4H19.416V53ZM54.9368 45.32C54.9368 49.832 58.3928 53.24 63.9128 53.24C67.6088 53.24 70.5368 52.136 72.3608 49.88V53H77.7848L77.7368 36.248C77.6888 30.632 73.9928 27.272 67.4168 27.272C62.5688 27.272 59.9768 28.376 56.4248 30.488L58.6808 34.328C61.2248 32.6 63.7688 31.736 66.2168 31.736C70.2488 31.736 72.3128 33.656 72.3128 36.872V37.64H64.5848C58.4408 37.688 54.9368 40.664 54.9368 45.32ZM60.1208 45.08C60.1208 42.632 61.8008 41.672 65.4008 41.672H72.3128V44.024C72.0248 46.808 69.0008 48.872 65.0648 48.872C61.9928 48.872 60.1208 47.384 60.1208 45.08ZM85.1738 53H90.6938V39.656C91.1258 35.288 94.3898 32.264 99.5258 32.552V27.272C95.4938 27.272 92.4218 29.096 90.6938 32.552V27.464H85.1738V53ZM101.664 40.136C101.664 47.912 106.56 53.24 113.904 53.24C117.984 53.24 121.056 51.608 122.88 48.632V53H128.4V17.384H122.88V31.88C121.008 28.904 117.936 27.224 113.808 27.224C106.608 27.224 101.664 32.456 101.664 40.136ZM107.184 40.328C107.232 35.432 110.448 31.928 115.056 31.928C119.664 31.928 122.88 35.384 122.88 40.328C122.88 45.176 119.664 48.632 115.056 48.632C110.4 48.632 107.232 45.176 107.184 40.328ZM133.711 49.64C136.255 51.944 140.239 53.192 143.983 53.192C149.119 53.192 153.775 50.84 153.775 45.608C153.823 36.344 140.239 38.888 140.239 34.184C140.239 32.36 141.823 31.64 143.983 31.64C146.239 31.64 149.071 32.504 151.327 33.896L153.343 29.816C151.039 28.184 147.631 27.224 144.415 27.224C139.519 27.224 135.007 29.432 135.007 34.616C134.959 43.832 148.399 40.904 148.399 46.136C148.399 48.056 146.575 48.872 144.223 48.872C141.439 48.872 137.887 47.672 135.679 45.704L133.711 49.64ZM159.57 53H165.09V45.848L169.41 41.288L176.898 53H183.426L173.25 37.352L182.706 27.464H176.37L165.09 38.888V17.384H159.57V53ZM187.397 20.168C187.397 22.088 188.789 23.48 190.613 23.48C192.437 23.48 193.829 22.088 193.829 20.168C193.829 18.2 192.437 16.808 190.613 16.808C188.789 16.808 187.397 18.2 187.397 20.168ZM187.877 53H193.349V27.464H187.877V53ZM201.758 53H207.278V17.384H201.758V53ZM215.914 53H221.434V17.384H215.914V53ZM226.758 49.64C229.302 51.944 233.286 53.192 237.03 53.192C242.166 53.192 246.822 50.84 246.822 45.608C246.87 36.344 233.286 38.888 233.286 34.184C233.286 32.36 234.87 31.64 237.03 31.64C239.286 31.64 242.118 32.504 244.374 33.896L246.39 29.816C244.086 28.184 240.678 27.224 237.462 27.224C232.566 27.224 228.054 29.432 228.054 34.616C228.006 43.832 241.446 40.904 241.446 46.136C241.446 48.056 239.622 48.872 237.27 48.872C234.486 48.872 230.934 47.672 228.726 45.704L226.758 49.64Z" fill="black"/>
</svg>
