<svg width="227" height="63" viewBox="0 0 227 63" fill="none" xmlns="http://www.w3.org/2000/svg">
<path d="M9 54L54 9" stroke="#FFBD3A" stroke-width="18" stroke-linecap="round"/>
<path d="M37 50L82 5" stroke="#FFBD3A" stroke-width="8" stroke-linecap="round"/>
<path d="M16.248 47.864C19.704 51.032 24.696 53.192 29.976 53.192C37.368 53.192 42.648 49.496 42.648 43.496C42.696 31.4 24.552 35.336 24.552 27.992C24.552 25.736 26.712 24.488 30.024 24.488C32.568 24.488 36.216 25.4 39.864 27.608L42.216 22.616C39.096 20.552 34.824 19.16 30.456 19.16C23.16 19.16 18.216 22.76 18.216 28.52C18.216 40.472 36.36 36.296 36.36 43.784C36.36 46.376 34.008 47.864 30.072 47.864C26.472 47.864 22.152 46.136 18.696 42.968L16.248 47.864ZM46.5394 40.232C46.5394 47.912 51.9634 53.192 59.8834 53.192C67.7554 53.192 73.1794 47.912 73.1794 40.232C73.1794 32.504 67.7554 27.272 59.8834 27.272C51.9634 27.272 46.5394 32.504 46.5394 40.232ZM52.0594 40.28C52.0594 35.384 55.2754 32.024 59.8834 32.024C64.4434 32.024 67.6594 35.384 67.6594 40.28C67.6594 45.224 64.4434 48.584 59.8834 48.584C55.2754 48.584 52.0594 45.224 52.0594 40.28ZM76.401 32.552H79.761V53H85.233V32.552H91.905V28.424H85.233V25.4C85.233 23 86.817 21.944 88.689 21.944C89.841 21.944 91.137 22.376 92.193 23.144L94.305 18.92C92.673 17.72 90.609 17.144 88.545 17.144C84.129 17.144 79.761 19.976 79.761 25.928V28.424H76.401V32.552ZM92.988 32.552H96.588V45.8C96.588 51.032 99.9 53.24 103.74 53.24C105.9 53.24 108.012 52.568 110.028 51.368L108.636 47.144C107.148 47.864 105.948 48.248 104.796 48.248C103.068 48.248 102.06 47.432 102.06 44.792V32.552H109.596V28.424H102.06V21.416H96.588V28.424H92.988V32.552ZM112.055 49.64C114.599 51.944 118.583 53.192 122.327 53.192C127.463 53.192 132.119 50.84 132.119 45.608C132.167 36.344 118.583 38.888 118.583 34.184C118.583 32.36 120.167 31.64 122.327 31.64C124.583 31.64 127.415 32.504 129.671 33.896L131.687 29.816C129.383 28.184 125.975 27.224 122.759 27.224C117.863 27.224 113.351 29.432 113.351 34.616C113.303 43.832 126.743 40.904 126.743 46.136C126.743 48.056 124.919 48.872 122.567 48.872C119.783 48.872 116.231 47.672 114.023 45.704L112.055 49.64ZM137.914 53H143.434V45.848L147.754 41.288L155.242 53H161.77L151.594 37.352L161.05 27.464H154.714L143.434 38.888V17.384H137.914V53ZM165.741 20.168C165.741 22.088 167.133 23.48 168.957 23.48C170.781 23.48 172.173 22.088 172.173 20.168C172.173 18.2 170.781 16.808 168.957 16.808C167.133 16.808 165.741 18.2 165.741 20.168ZM166.221 53H171.693V27.464H166.221V53ZM180.101 53H185.621V17.384H180.101V53ZM194.258 53H199.778V17.384H194.258V53ZM205.102 49.64C207.646 51.944 211.63 53.192 215.374 53.192C220.51 53.192 225.166 50.84 225.166 45.608C225.214 36.344 211.63 38.888 211.63 34.184C211.63 32.36 213.214 31.64 215.374 31.64C217.63 31.64 220.462 32.504 222.718 33.896L224.734 29.816C222.43 28.184 219.022 27.224 215.806 27.224C210.91 27.224 206.398 29.432 206.398 34.616C206.35 43.832 219.79 40.904 219.79 46.136C219.79 48.056 217.966 48.872 215.614 48.872C212.83 48.872 209.278 47.672 207.07 45.704L205.102 49.64Z" fill="black"/>
</svg>
